%TF.GenerationSoftware,KiCad,Pcbnew,10.0.6*%
%TF.CreationDate,2026-10-03T14:48:07+02:00*%
%TF.ProjectId,hackpad,6861636b-7061-4642-9e6b-696361645f70,rev?*%
%TF.SameCoordinates,Original*%
%TF.FileFunction,Legend,Top*%
%TF.FilePolarity,Positive*%
%FSLAX46Y46*%
G04 Gerber Fmt 4.6, Leading zero omitted, Abs format (unit mm)*
G04 Created by KiCad (PCBNEW 10.0.6) date 2026-10-03 14:48:07*
%MOMM*%
%LPD*%
G01*
G04 APERTURE LIST*
%ADD10C,0.150000*%
%ADD11C,0.120000*%
G04 APERTURE END LIST*
D10*
X104402167Y-77173715D02*
X104545024Y-77221334D01*
X104545024Y-77221334D02*
X104783119Y-77221334D01*
X104783119Y-77221334D02*
X104878357Y-77173715D01*
X104878357Y-77173715D02*
X104925976Y-77126095D01*
X104925976Y-77126095D02*
X104973595Y-77030857D01*
X104973595Y-77030857D02*
X104973595Y-76935619D01*
X104973595Y-76935619D02*
X104925976Y-76840381D01*
X104925976Y-76840381D02*
X104878357Y-76792762D01*
X104878357Y-76792762D02*
X104783119Y-76745143D01*
X104783119Y-76745143D02*
X104592643Y-76697524D01*
X104592643Y-76697524D02*
X104497405Y-76649905D01*
X104497405Y-76649905D02*
X104449786Y-76602286D01*
X104449786Y-76602286D02*
X104402167Y-76507048D01*
X104402167Y-76507048D02*
X104402167Y-76411810D01*
X104402167Y-76411810D02*
X104449786Y-76316572D01*
X104449786Y-76316572D02*
X104497405Y-76268953D01*
X104497405Y-76268953D02*
X104592643Y-76221334D01*
X104592643Y-76221334D02*
X104830738Y-76221334D01*
X104830738Y-76221334D02*
X104973595Y-76268953D01*
X105306929Y-76221334D02*
X105545024Y-77221334D01*
X105545024Y-77221334D02*
X105735500Y-76507048D01*
X105735500Y-76507048D02*
X105925976Y-77221334D01*
X105925976Y-77221334D02*
X106164072Y-76221334D01*
X106449786Y-76221334D02*
X107068833Y-76221334D01*
X107068833Y-76221334D02*
X106735500Y-76602286D01*
X106735500Y-76602286D02*
X106878357Y-76602286D01*
X106878357Y-76602286D02*
X106973595Y-76649905D01*
X106973595Y-76649905D02*
X107021214Y-76697524D01*
X107021214Y-76697524D02*
X107068833Y-76792762D01*
X107068833Y-76792762D02*
X107068833Y-77030857D01*
X107068833Y-77030857D02*
X107021214Y-77126095D01*
X107021214Y-77126095D02*
X106973595Y-77173715D01*
X106973595Y-77173715D02*
X106878357Y-77221334D01*
X106878357Y-77221334D02*
X106592643Y-77221334D01*
X106592643Y-77221334D02*
X106497405Y-77173715D01*
X106497405Y-77173715D02*
X106449786Y-77126095D01*
X104402167Y-58033200D02*
X104545024Y-58080819D01*
X104545024Y-58080819D02*
X104783119Y-58080819D01*
X104783119Y-58080819D02*
X104878357Y-58033200D01*
X104878357Y-58033200D02*
X104925976Y-57985580D01*
X104925976Y-57985580D02*
X104973595Y-57890342D01*
X104973595Y-57890342D02*
X104973595Y-57795104D01*
X104973595Y-57795104D02*
X104925976Y-57699866D01*
X104925976Y-57699866D02*
X104878357Y-57652247D01*
X104878357Y-57652247D02*
X104783119Y-57604628D01*
X104783119Y-57604628D02*
X104592643Y-57557009D01*
X104592643Y-57557009D02*
X104497405Y-57509390D01*
X104497405Y-57509390D02*
X104449786Y-57461771D01*
X104449786Y-57461771D02*
X104402167Y-57366533D01*
X104402167Y-57366533D02*
X104402167Y-57271295D01*
X104402167Y-57271295D02*
X104449786Y-57176057D01*
X104449786Y-57176057D02*
X104497405Y-57128438D01*
X104497405Y-57128438D02*
X104592643Y-57080819D01*
X104592643Y-57080819D02*
X104830738Y-57080819D01*
X104830738Y-57080819D02*
X104973595Y-57128438D01*
X105306929Y-57080819D02*
X105545024Y-58080819D01*
X105545024Y-58080819D02*
X105735500Y-57366533D01*
X105735500Y-57366533D02*
X105925976Y-58080819D01*
X105925976Y-58080819D02*
X106164072Y-57080819D01*
X106497405Y-57176057D02*
X106545024Y-57128438D01*
X106545024Y-57128438D02*
X106640262Y-57080819D01*
X106640262Y-57080819D02*
X106878357Y-57080819D01*
X106878357Y-57080819D02*
X106973595Y-57128438D01*
X106973595Y-57128438D02*
X107021214Y-57176057D01*
X107021214Y-57176057D02*
X107068833Y-57271295D01*
X107068833Y-57271295D02*
X107068833Y-57366533D01*
X107068833Y-57366533D02*
X107021214Y-57509390D01*
X107021214Y-57509390D02*
X106449786Y-58080819D01*
X106449786Y-58080819D02*
X107068833Y-58080819D01*
X104402167Y-38802685D02*
X104545024Y-38850304D01*
X104545024Y-38850304D02*
X104783119Y-38850304D01*
X104783119Y-38850304D02*
X104878357Y-38802685D01*
X104878357Y-38802685D02*
X104925976Y-38755065D01*
X104925976Y-38755065D02*
X104973595Y-38659827D01*
X104973595Y-38659827D02*
X104973595Y-38564589D01*
X104973595Y-38564589D02*
X104925976Y-38469351D01*
X104925976Y-38469351D02*
X104878357Y-38421732D01*
X104878357Y-38421732D02*
X104783119Y-38374113D01*
X104783119Y-38374113D02*
X104592643Y-38326494D01*
X104592643Y-38326494D02*
X104497405Y-38278875D01*
X104497405Y-38278875D02*
X104449786Y-38231256D01*
X104449786Y-38231256D02*
X104402167Y-38136018D01*
X104402167Y-38136018D02*
X104402167Y-38040780D01*
X104402167Y-38040780D02*
X104449786Y-37945542D01*
X104449786Y-37945542D02*
X104497405Y-37897923D01*
X104497405Y-37897923D02*
X104592643Y-37850304D01*
X104592643Y-37850304D02*
X104830738Y-37850304D01*
X104830738Y-37850304D02*
X104973595Y-37897923D01*
X105306929Y-37850304D02*
X105545024Y-38850304D01*
X105545024Y-38850304D02*
X105735500Y-38136018D01*
X105735500Y-38136018D02*
X105925976Y-38850304D01*
X105925976Y-38850304D02*
X106164072Y-37850304D01*
X107068833Y-38850304D02*
X106497405Y-38850304D01*
X106783119Y-38850304D02*
X106783119Y-37850304D01*
X106783119Y-37850304D02*
X106687881Y-37993161D01*
X106687881Y-37993161D02*
X106592643Y-38088399D01*
X106592643Y-38088399D02*
X106497405Y-38136018D01*
%TO.C,SW3*%
D11*
X98750500Y-77655515D02*
X112720500Y-77655515D01*
X98750500Y-91625515D02*
X98750500Y-77655515D01*
X112720500Y-77655515D02*
X112720500Y-91625515D01*
X112720500Y-91625515D02*
X98750500Y-91625515D01*
%TO.C,SW2*%
X98750500Y-58515000D02*
X112720500Y-58515000D01*
X98750500Y-72485000D02*
X98750500Y-58515000D01*
X112720500Y-58515000D02*
X112720500Y-72485000D01*
X112720500Y-72485000D02*
X98750500Y-72485000D01*
%TO.C,SW1*%
X98750500Y-39284485D02*
X112720500Y-39284485D01*
X98750500Y-53254485D02*
X98750500Y-39284485D01*
X112720500Y-39284485D02*
X112720500Y-53254485D01*
X112720500Y-53254485D02*
X98750500Y-53254485D01*
%TD*%
M02*
